<mxfile host="app.diagrams.net" agent="Mozilla/5.0 (Windows NT 10.0; Win64; x64) AppleWebKit/537.36 (KHTML, like Gecko) Chrome/135.0.0.0 Safari/537.36" version="26.2.14">
  <diagram name="Page-1" id="9o6kGaNqmaushEqK6S58">
    <mxGraphModel dx="2037" dy="2213" grid="1" gridSize="10" guides="1" tooltips="1" connect="1" arrows="1" fold="1" page="1" pageScale="1" pageWidth="827" pageHeight="1169" math="0" shadow="0">
      <root>
        <mxCell id="0" />
        <mxCell id="1" parent="0" />
        <mxCell id="cKyl97X_7fW_HANcy8jT-1" value="(Scheduler)" style="html=1;verticalLabelPosition=bottom;align=center;labelBackgroundColor=#ffffff;verticalAlign=top;strokeWidth=2;strokeColor=#0080F0;shadow=0;dashed=0;shape=mxgraph.ios7.icons.alarm_clock;" vertex="1" parent="1">
          <mxGeometry x="60" y="100" width="27" height="30" as="geometry" />
        </mxCell>
        <mxCell id="cKyl97X_7fW_HANcy8jT-4" value="(Process)" style="verticalLabelPosition=bottom;sketch=0;aspect=fixed;html=1;verticalAlign=top;strokeColor=none;align=center;outlineConnect=0;shape=mxgraph.citrix.process;" vertex="1" parent="1">
          <mxGeometry x="330" y="-2.819999999999993" width="38.16" height="45.49" as="geometry" />
        </mxCell>
        <mxCell id="cKyl97X_7fW_HANcy8jT-5" value="Storage" style="swimlane;whiteSpace=wrap;html=1;" vertex="1" parent="1">
          <mxGeometry x="10" y="310" width="540" height="290" as="geometry" />
        </mxCell>
        <mxCell id="cKyl97X_7fW_HANcy8jT-2" value="(Cache)" style="image;sketch=0;aspect=fixed;html=1;points=[];align=center;fontSize=12;image=img/lib/mscae/Cache_Redis_Product.svg;" vertex="1" parent="cKyl97X_7fW_HANcy8jT-5">
          <mxGeometry x="20.00000000000003" y="44" width="50" height="42" as="geometry" />
        </mxCell>
        <mxCell id="cKyl97X_7fW_HANcy8jT-3" value="(Database)" style="image;html=1;image=img/lib/clip_art/computers/Database_128x128.png" vertex="1" parent="cKyl97X_7fW_HANcy8jT-5">
          <mxGeometry x="110" y="40" width="80" height="50" as="geometry" />
        </mxCell>
        <mxCell id="cKyl97X_7fW_HANcy8jT-6" value="&lt;font&gt;(Queue)&lt;/font&gt;" style="image;aspect=fixed;html=1;points=[];align=center;fontSize=12;image=img/lib/azure2/general/Storage_Queue.svg;" vertex="1" parent="cKyl97X_7fW_HANcy8jT-5">
          <mxGeometry x="238" y="38" width="64" height="52" as="geometry" />
        </mxCell>
        <mxCell id="cKyl97X_7fW_HANcy8jT-7" value="&lt;font&gt;ATS&lt;/font&gt;" style="fontColor=#0066CC;verticalAlign=top;verticalLabelPosition=bottom;labelPosition=center;align=center;html=1;outlineConnect=0;fillColor=#CCCCCC;strokeColor=#6881B3;gradientColor=none;gradientDirection=north;strokeWidth=2;shape=mxgraph.networks.biometric_reader;" vertex="1" parent="1">
          <mxGeometry x="53.5" y="-10" width="40" height="60" as="geometry" />
        </mxCell>
        <mxCell id="cKyl97X_7fW_HANcy8jT-11" value="(Notification)" style="sketch=0;outlineConnect=0;fontColor=#232F3E;gradientColor=none;fillColor=#DD344C;strokeColor=none;dashed=0;verticalLabelPosition=bottom;verticalAlign=top;align=center;html=1;fontSize=12;fontStyle=0;aspect=fixed;shape=mxgraph.aws4.email;" vertex="1" parent="1">
          <mxGeometry x="180" y="-10.150000000000006" width="68" height="60.15" as="geometry" />
        </mxCell>
        <mxCell id="cKyl97X_7fW_HANcy8jT-12" value="(Job)" style="image;aspect=fixed;html=1;points=[];align=center;fontSize=12;image=img/lib/azure2/management_governance/Scheduler_Job_Collections.svg;" vertex="1" parent="1">
          <mxGeometry x="140" y="100" width="63.76" height="60" as="geometry" />
        </mxCell>
        <mxCell id="cKyl97X_7fW_HANcy8jT-13" value="(Worker)" style="outlineConnect=0;dashed=0;verticalLabelPosition=bottom;verticalAlign=top;align=center;html=1;shape=mxgraph.aws3.worker;fillColor=#D9A741;gradientColor=none;" vertex="1" parent="1">
          <mxGeometry x="265" y="106.58999999999997" width="30" height="31.5" as="geometry" />
        </mxCell>
        <mxCell id="cKyl97X_7fW_HANcy8jT-14" value="" style="verticalLabelPosition=bottom;html=1;verticalAlign=top;align=center;strokeColor=none;fillColor=#00BEF2;shape=mxgraph.azure.user;" vertex="1" parent="1">
          <mxGeometry x="40" y="200" width="38" height="40" as="geometry" />
        </mxCell>
        <mxCell id="cKyl97X_7fW_HANcy8jT-15" value="" style="image;aspect=fixed;perimeter=ellipsePerimeter;html=1;align=center;shadow=0;dashed=0;fontColor=#4277BB;labelBackgroundColor=default;fontSize=12;spacingTop=3;image=img/lib/ibm/applications/automation_tools.svg;" vertex="1" parent="1">
          <mxGeometry x="143.76" y="200" width="60" height="60" as="geometry" />
        </mxCell>
      </root>
    </mxGraphModel>
  </diagram>
</mxfile>
